PathFileType	4	(X/Y/Z)	walk-thru1-3-TP.trc
DataRate	CameraRate	NumFrames	NumMarkers	Units	OrigDataRate	OrigDataStartFrame	OrigNumFrames
120.00	120.00	       4	60	mm	120.00	265	       529
Frame#	Time	Top.Head			Front.Head			Rear.Head			Jaw			C7			R.Clavicle			L.Clavicle			R.Shoulder			L.Shoulder			R.Scapula			L.Scapula			R.Scap.Inf			R.Biceps.Lateral			R.Elbow			R.Elbow.Medial			R.Forearm			R.Ulna			R.Radius			R.Wrist			R.Thumb.M1			R.Thumb.M2			R.Thumb.M3			R.Finger3.M1			R.Finger3.M2			R.Finger3.M3			L.Biceps.Lateral			L.Elbow			L.Elbow.Medial			L.Forearm			L.Ulna			L.Radius			L.Wrist			L.Thumb.M1			L.Thumb.M2			L.Thumb.M3			L.Finger3.M1			L.Finger3.M2			L.Finger3.M3			V.Sacral			R.ASIS			L.ASIS			R.Thigh			R.Thigh.Front			R.Knee			R.Knee.Medial			R.Shank			R.Ankle			R.Ankle.Medial			R.Heel			R.Toe			R.MedFoot			L.Thigh			L.Knee			L.Knee.Medial			L.Shank			L.Ankle			L.Ankle.Medial			L.Heel			L.Toe			L.MedFoot			V_mid_ASIS			V_R_Knee_JC			V_L_Knee_JC			V_R_Elbow_JC			V_L_Elbow_JC			V_R_Ankle_JC			V_L_Ankle_JC			V_R_Wrist_JC			V_L_Wrist_JC			V_R_ScaTrpz_1stMC_JC			V_R_1stMC_1stPP_JC			V_R_1stPP_1stDP_JC			V_R_LunCap_3rdMC_JC			V_R_3rdMC_3rdPP_JC			V_R_3rdPP_3rdMP_JC			V_R_3rdMP_3rdDP_JC			V_L_ScaTrpz_1stMC_JC			V_L_1stMC_1stPP_JC			V_L_1stPP_1stDP_JC			V_L_LunCap_3rdMC_JC			V_L_3rdMC_3rdPP_JC			V_L_3rdPP_3rdMP_JC			V_L_3rdMP_3rdPP_JC			V_ROOT_JC			V_R_Hip_JC			V_L_Hip_JC			V_R_GlenHum_JC			V_L_GlenHum_JC			V_ForeHead_Ctr			V_Vertex			V_Sagit_Lambdoid_Suture			V_R_FrontoTemp			V_L_FrontoTemporal			V_R_ParietalOccip			V_L_ParietalOcciptal			V_R_Temporal			V_L_Temporal			V_mid_FrontRearHead			V_mid_RLGlenHumCtrs			V_C7_vert			V_C1_vert			V_Mid_Hip			
		X1	Y1	Z1	X2	Y2	Z2	X3	Y3	Z3	X4	Y4	Z4	X5	Y5	Z5	X6	Y6	Z6	X7	Y7	Z7	X8	Y8	Z8	X9	Y9	Z9	X10	Y10	Z10	X11	Y11	Z11	X12	Y12	Z12	X13	Y13	Z13	X14	Y14	Z14	X15	Y15	Z15	X16	Y16	Z16	X17	Y17	Z17	X18	Y18	Z18	X19	Y19	Z19	X20	Y20	Z20	X21	Y21	Z21	X22	Y22	Z22	X23	Y23	Z23	X24	Y24	Z24	X25	Y25	Z25	X26	Y26	Z26	X27	Y27	Z27	X28	Y28	Z28	X29	Y29	Z29	X30	Y30	Z30	X31	Y31	Z31	X32	Y32	Z32	X33	Y33	Z33	X34	Y34	Z34	X35	Y35	Z35	X36	Y36	Z36	X37	Y37	Z37	X38	Y38	Z38	X39	Y39	Z39	X40	Y40	Z40	X41	Y41	Z41	X42	Y42	Z42	X43	Y43	Z43	X44	Y44	Z44	X45	Y45	Z45	X46	Y46	Z46	X47	Y47	Z47	X48	Y48	Z48	X49	Y49	Z49	X50	Y50	Z50	X51	Y51	Z51	X52	Y52	Z52	X53	Y53	Z53	X54	Y54	Z54	X55	Y55	Z55	X56	Y56	Z56	X57	Y57	Z57	X58	Y58	Z58	X59	Y59	Z59	X60	Y60	Z60	

265	2.200	15.88613	62.75786	1790.70837	-81.45179	56.65807	1676.78296	144.80251	57.72895	1695.47339	-34.94484	57.71767	1511.46814	160.89024	50.46057	1559.80200	68.93384	173.36551	1463.43176	48.98536	-54.33515	1465.61267	114.84636	257.05725	1458.51086	109.09398	-152.85117	1477.29346	216.63673	139.15715	1477.08167	209.77576	-33.67198	1481.46753	266.73776	144.75444	1390.26685	178.04053	313.06769	1284.72437	223.57210	327.67136	1135.13660	238.37317	235.58972	1119.27844	139.64490	280.94547	1015.87750	180.71173	320.19724	916.38678	113.48024	263.71054	885.54486	125.79639	301.15271	836.34967	102.98338	259.58978	852.58105	66.96662	232.21710	806.54474	30.24333	234.03984	778.38452	85.70557	307.87488	766.17896	69.51002	269.91748	713.43475	75.88428	223.23143	690.47198	122.75843	-221.39726	1328.39282	123.32777	-268.69949	1152.54260	173.65691	-210.55547	1130.82800	47.05265	-234.80347	1056.47815	82.63610	-259.99316	960.43463	12.54109	-200.32646	921.95288	9.45117	-232.94048	863.71661	-3.73031	-183.60803	859.36548	-4.98771	-147.71872	811.34442	-16.59967	-151.79175	750.62213	-16.64209	-244.25380	791.51465	-10.67048	-224.04895	735.10114	8.07686	-204.89604	689.57874	262.57599	38.16870	1082.50952	176.39897	231.84155	1022.21985	159.40831	-144.06476	1026.89099	53.28920	196.83900	623.48102	-47.12145	113.53055	579.91693	-3.91433	164.04977	513.09802	-12.31998	49.99092	513.99194	-76.02045	130.84990	349.01389	-70.96917	153.59187	74.56254	-109.60735	64.05430	111.72442	-32.79617	87.20215	36.77037	-246.31981	138.07353	107.89104	-190.52417	91.97983	107.29990	177.98740	-121.32907	643.84912	187.42229	-95.71152	492.97931	184.35776	18.84183	493.94559	229.59784	-38.25612	296.41898	378.58264	-57.83404	81.86554	342.45929	36.03096	116.12682	433.54904	3.34881	75.88707	199.05745	-16.15183	45.49675	260.35037	15.50801	72.56766																																																																																																																															
266	2.208	12.14674	63.35209	1789.46411	-87.52549	56.58294	1675.62830	139.70509	58.99726	1694.78809	-40.30229	57.49281	1510.17029	153.85661	52.61027	1558.39441	62.16607	174.27679	1461.83716	44.32680	-52.51492	1465.12134	107.85130	259.10416	1456.97705	103.76961	-152.74123	1476.03662	210.71642	139.58160	1475.56506	204.37054	-31.23790	1480.08545	261.25055	145.26903	1389.09509	170.65755	315.11884	1283.40686	216.93356	328.37076	1133.02625	229.74185	237.47679	1118.39124	131.78922	281.76428	1014.36084	173.44640	320.63342	915.47931	106.97594	265.14050	884.84998	117.98914	301.88983	835.63696	96.68048	258.98154	850.78662	59.73786	232.80040	805.62140	22.62907	235.03864	777.64832	78.80915	308.66373	764.82257	60.30330	269.89270	712.63654	67.69520	223.45973	689.01959	118.37235	-220.14653	1327.26282	118.41709	-268.90045	1151.49695	169.09723	-208.99632	1130.42615	43.46363	-234.40007	1055.35693	79.34227	-259.24820	959.89020	9.27835	-199.74863	920.16205	6.08912	-232.70544	862.31458	-6.82494	-183.80009	858.05792	-6.19404	-148.32178	808.42603	-18.96935	-152.99902	747.39166	-20.36287	-244.31184	790.48413	-14.43911	-224.53439	733.10358	5.03818	-205.42911	687.74054	256.12115	39.23527	1081.07507	170.21388	232.11536	1020.47272	151.97026	-143.33255	1026.59729	44.21407	196.91519	622.68726	-54.53271	112.11137	579.49603	-11.63671	163.85793	511.39157	-19.62355	49.45961	512.94092	-82.82621	129.55606	347.91357	-75.99748	151.86836	72.95569	-114.51493	62.83522	109.92977	-37.00536	86.49251	36.08300	-252.17477	135.05620	105.13617	-194.37187	89.86188	105.26295	172.95016	-120.59063	642.89575	182.50154	-95.36546	491.96048	179.96132	18.36834	493.75525	226.54459	-38.79508	296.25955	377.99472	-58.47298	82.68053	341.52008	35.86996	117.08090	432.85760	3.26972	77.44642	199.05745	-16.15183	45.49675	259.99106	15.24672	72.79463																																																																																																																															
267	2.217	4.63493	64.90076	1788.58435	-93.82510	57.92805	1674.98218	133.25932	59.18084	1692.73474	-46.16982	59.38719	1509.30347	148.38197	54.02171	1556.89868	55.86715	174.77823	1460.68652	37.98428	-51.78130	1464.46460	102.20419	260.00461	1456.28113	97.48424	-151.32971	1474.95227	204.58949	140.56456	1475.02832	198.44803	-29.55812	1478.70776	254.40576	147.54402	1388.33630	165.34904	315.60190	1282.30603	208.79327	330.27292	1132.22388	224.61244	238.76907	1116.29968	124.29558	282.98157	1012.97821	165.52882	322.47156	913.76001	99.46172	265.42496	883.26550	110.34431	302.59369	834.96185	89.26268	260.85696	850.13477	51.51616	232.28943	805.49554	16.37854	234.31152	776.37402	70.88618	308.85602	763.07001	52.34863	270.31799	712.19507	61.96992	224.24278	687.58197	112.86848	-218.67543	1326.40112	114.26254	-267.70410	1150.84302	165.14934	-207.54160	1128.70557	38.85721	-232.83409	1054.03796	76.00261	-259.23041	958.98755	5.21678	-199.70206	918.88617	2.19695	-231.78857	861.43018	-11.05832	-183.82672	856.30762	-9.65443	-147.50082	807.82440	-22.70536	-151.70590	746.86267	-23.01064	-243.55157	789.41107	-17.51916	-224.02756	731.86310	1.54130	-204.86038	686.07727	249.95073	40.75123	1079.87769	163.98077	232.72444	1018.49457	146.28252	-142.81271	1025.73450	36.62188	196.62038	622.11578	-61.83209	112.04667	578.71387	-19.34901	164.08134	510.77005	-26.52418	48.50725	512.35596	-89.15612	128.52798	346.31885	-79.29395	150.13542	71.07547	-117.42076	60.99523	107.57062	-39.20067	85.54539	35.40262	-256.01740	132.49341	101.83239	-198.63747	86.41081	102.33990	167.66100	-120.39591	642.35583	178.87695	-95.15065	491.47009	176.64503	21.50146	493.93945	223.92445	-39.50907	295.54050	377.71426	-58.85040	83.80923	340.45096	35.64399	117.85278	432.42618	2.81477	78.70513	199.05745	-16.15183	45.49675	259.54669	15.05729	72.92303																																																																																																																															
268	2.225	-1.25402	65.39996	1787.75903	-99.57697	58.99252	1673.79663	128.03023	60.66164	1691.98596	-51.14936	58.80407	1508.12024	142.73955	54.10963	1556.39734	50.54707	176.32883	1460.30261	31.91043	-51.12695	1463.10327	95.55257	261.32236	1454.95300	92.64296	-150.41768	1474.00256	198.60242	140.77489	1474.09192	190.96445	-29.81797	1477.32959	248.68147	147.66013	1386.84851	157.36710	317.32239	1281.20801	203.64574	331.26593	1130.42407	215.05424	240.83931	1114.17065	118.49356	284.47464	1012.37134	158.55321	323.46851	912.39294	91.56188	267.41150	881.00897	103.85423	304.07483	832.87567	81.03619	262.25488	848.35120	44.33094	234.95248	804.45618	8.49540	235.61601	775.90161	63.94483	309.76721	762.94830	45.11855	271.12927	710.35498	55.38607	224.57510	687.44415	107.96665	-218.43254	1325.52063	110.26036	-266.55661	1150.11877	159.86981	-206.62891	1127.84387	34.73522	-232.81265	1053.25098	72.37164	-258.69089	957.44788	1.66455	-198.31310	918.00427	-0.56423	-231.76811	860.13696	-13.95319	-183.02850	854.92896	-12.79545	-147.94151	806.00238	-25.42254	-152.28381	745.54010	-26.81663	-243.46989	787.64935	-19.60814	-224.73534	730.31702	-1.11798	-204.48953	685.07959	242.59097	41.78784	1078.47827	155.11919	233.99762	1018.62109	138.91405	-141.73056	1024.96790	27.89855	196.62090	621.38324	-69.62508	111.55597	578.42194	-28.51717	163.24422	509.96884	-34.38020	48.67927	510.89615	-95.31795	127.61853	344.35007	-82.13452	148.78197	70.03749	-119.58842	58.86990	104.75650	-40.83001	84.88610	34.98343	-258.77692	129.15317	96.83831	-200.11372	84.97607	98.08447	162.50696	-119.95712	641.65607	174.04349	-95.66595	490.57532	171.18875	20.10576	491.99390	220.77737	-40.14666	295.30264	377.59793	-58.83319	85.18829	339.59192	35.54228	118.06279	431.89789	2.81198	80.00183	199.05745	-16.15183	45.49675	259.54669	15.05729	72.92303																																																																																																																															
